<svg width="19.000000" height="18.000000" viewBox="0 0 19 18" fill="none" xmlns="http://www.w3.org/2000/svg" xmlns:xlink="http://www.w3.org/1999/xlink">
	<desc>
			Created with Pixso.
	</desc>
	<defs/>
	<path id="Vector" d="M11.33 10.73C9.83 12.19 9.73 14.01 9.6 18C13.52 18 16.23 17.98 17.62 16.7C18.98 15.37 19 12.68 19 9.09C14.79 9.22 12.87 9.32 11.33 10.73ZM0 9.09C0 12.68 0.01 15.37 1.37 16.7C2.76 17.98 5.47 18 9.39 18C9.26 14.01 9.16 12.19 7.66 10.73C6.12 9.32 4.2 9.21 0 9.09ZM9.39 0C5.48 0 2.76 0.01 1.37 1.29C0.01 2.62 0 5.31 0 8.9C4.2 8.77 6.12 8.67 7.66 7.26C9.16 5.8 9.26 3.98 9.39 0ZM11.33 7.26C9.83 5.8 9.73 3.98 9.6 0C13.52 0 16.23 0.01 17.62 1.29C18.98 2.62 19 5.31 19 8.9C14.79 8.77 12.87 8.67 11.33 7.26Z" fill="#000000" fill-opacity="1.000000" fill-rule="nonzero"/>
	<path id="Vector" d="M9.63 1C9.62 0.68 9.61 0.34 9.6 0C9.87 0 10.13 0 10.39 0C10.46 0 10.53 0 10.6 0C13.98 0.01 16.35 0.12 17.62 1.29C18.85 2.49 18.98 4.81 18.99 7.9C18.99 7.96 18.99 8.03 18.99 8.09C19 8.35 19 8.62 19 8.9C18.65 8.89 18.31 8.88 18 8.87C16.18 8.8 14.84 8.72 13.78 8.48C12.77 8.26 12.01 7.89 11.33 7.26C10.64 6.59 10.24 5.84 10.01 4.83C9.78 3.85 9.69 2.63 9.63 1ZM10.63 1Q10.67 1.98 10.71 2.54Q10.79 3.66 10.93 4.38Q11.08 5.11 11.34 5.62Q11.59 6.11 12.02 6.53Q12.38 6.86 12.79 7.08Q12.89 7.14 13 7.18Q13.55 7.43 14.34 7.58Q15.1 7.71 16.3 7.79Q16.9 7.83 17.99 7.87Q17.99 6.94 17.97 6.41Q17.94 5.19 17.83 4.38Q17.71 3.49 17.48 2.9Q17.26 2.34 16.94 2.02Q16.58 1.7 16 1.49Q15.38 1.27 14.44 1.15Q13.58 1.05 12.28 1.02Q11.7 1 10.63 1ZM8.98 4.83C9.21 3.85 9.3 2.63 9.36 1C9.37 0.68 9.38 0.34 9.39 0C9.12 0 8.86 0 8.6 0C8.53 0 8.46 0 8.39 0C5.01 0.01 2.64 0.12 1.37 1.29C0.14 2.49 0.01 4.81 0 7.9C0 7.96 0 8.03 0 8.09C0 8.35 0 8.62 0 8.9C0.34 8.89 0.68 8.88 1 8.87C2.81 8.8 4.15 8.72 5.22 8.48C6.22 8.26 6.98 7.89 7.66 7.26C8.35 6.59 8.75 5.84 8.98 4.83ZM6.97 6.53Q7.4 6.11 7.65 5.62Q7.91 5.11 8.06 4.38Q8.2 3.66 8.28 2.54Q8.32 1.98 8.36 1Q7.3 1 6.71 1.02Q5.41 1.05 4.56 1.15Q3.62 1.27 2.99 1.49Q2.41 1.7 2.05 2.02Q1.73 2.34 1.51 2.9Q1.28 3.49 1.16 4.38Q1.05 5.19 1.02 6.41Q1 6.94 1 7.87Q2.09 7.83 2.69 7.79Q3.89 7.71 4.65 7.58Q5.44 7.43 5.99 7.18Q6.1 7.14 6.2 7.08Q6.61 6.86 6.97 6.53ZM5.22 9.51C4.15 9.26 2.81 9.18 1 9.12C0.68 9.11 0.34 9.1 0 9.09C0 9.37 0 9.64 0 9.9C0 9.96 0 10.03 0 10.09C0.01 13.18 0.14 15.5 1.37 16.7C2.64 17.87 5.01 17.98 8.39 17.99C8.46 17.99 8.53 17.99 8.6 17.99C8.86 18 9.12 18 9.39 18C9.38 17.65 9.37 17.31 9.36 17C9.29 15.37 9.21 14.14 8.98 13.16C8.75 12.16 8.35 11.4 7.66 10.73C6.98 10.1 6.22 9.73 5.22 9.51ZM6.97 11.46Q6.61 11.12 6.18 10.9Q6.09 10.85 5.99 10.81Q5.44 10.55 4.65 10.41Q3.89 10.27 2.69 10.2Q2.08 10.16 1 10.12Q1 11.05 1.02 11.58Q1.05 12.8 1.16 13.61Q1.28 14.5 1.51 15.09Q1.73 15.65 2.05 15.97Q2.41 16.29 2.99 16.5Q3.61 16.72 4.55 16.84Q5.41 16.94 6.71 16.97Q7.29 16.99 8.36 16.99Q8.32 16 8.28 15.45Q8.2 14.32 8.06 13.61Q7.91 12.88 7.65 12.37Q7.4 11.88 6.97 11.46ZM10.01 13.16C9.77 14.14 9.69 15.37 9.63 17C9.62 17.31 9.61 17.65 9.6 18C9.87 18 10.13 18 10.39 17.99C10.46 17.99 10.53 17.99 10.6 17.99C13.98 17.98 16.35 17.87 17.62 16.7C18.85 15.5 18.98 13.18 18.99 10.09C18.99 10.03 18.99 9.96 18.99 9.9C19 9.64 19 9.37 19 9.09C18.65 9.1 18.31 9.11 18 9.12C16.18 9.19 14.84 9.27 13.78 9.51C12.77 9.73 12.01 10.1 11.33 10.73C10.64 11.41 10.24 12.16 10.01 13.16ZM12.02 11.46Q11.59 11.88 11.34 12.37Q11.08 12.88 10.93 13.61Q10.79 14.33 10.71 15.45Q10.67 16.01 10.63 16.99Q11.7 16.99 12.28 16.97Q13.58 16.94 14.44 16.84Q15.38 16.72 16 16.5Q16.58 16.29 16.94 15.97Q17.26 15.65 17.48 15.09Q17.71 14.5 17.83 13.61Q17.94 12.8 17.97 11.58Q17.99 11.05 17.99 10.12Q16.9 10.16 16.3 10.2Q15.1 10.28 14.34 10.41Q13.55 10.56 13 10.81Q12.89 10.85 12.79 10.91Q12.38 11.13 12.02 11.46Z" fill="#000000" fill-opacity="1.000000" fill-rule="evenodd"/>
</svg>
