<svg width="24.000000" height="24.000000" viewBox="0 0 24 24" fill="none" xmlns="http://www.w3.org/2000/svg" xmlns:xlink="http://www.w3.org/1999/xlink">
	<desc>
			Created with Pixso.
	</desc>
	<defs>
		<clipPath id="clip322_98">
			<rect id="shopping-bag-line 1" rx="0.000000" width="23.000000" height="23.000000" transform="translate(0.500000 0.500000)" fill="white" fill-opacity="0"/>
		</clipPath>
	</defs>
	<rect id="shopping-bag-line 1" rx="0.000000" width="23.000000" height="23.000000" transform="translate(0.500000 0.500000)" fill="#FFFFFF" fill-opacity="0"/>
	<g clip-path="url(#clip322_98)">
		<path id="Vector" d="M7 8L7 6C7 4.67 7.52 3.4 8.46 2.46C9.4 1.52 10.67 1 12 1C13.32 1 14.59 1.52 15.53 2.46C16.47 3.4 17 4.67 17 6L17 8L20 8C20.26 8 20.51 8.1 20.7 8.29C20.89 8.48 21 8.73 21 9L21 21C21 21.26 20.89 21.51 20.7 21.7C20.51 21.89 20.26 22 20 22L4 22C3.73 22 3.48 21.89 3.29 21.7C3.1 21.51 3 21.26 3 21L3 9C3 8.73 3.1 8.48 3.29 8.29C3.48 8.1 3.73 8 4 8L7 8ZM7 10L5 10L5 20L19 20L19 10L17 10L17 12L15 12L15 10L9 10L9 12L7 12L7 10ZM9 8L15 8L15 6C15 5.2 14.68 4.44 14.12 3.87C13.55 3.31 12.79 3 12 3C11.2 3 10.44 3.31 9.87 3.87C9.31 4.44 9 5.2 9 6L9 8Z" fill="#DD2121" fill-opacity="1.000000" fill-rule="nonzero"/>
	</g>
</svg>
